<?xml version="1.0" encoding="UTF-8"?><svg xmlns="http://www.w3.org/2000/svg" xmlns:xlink="http://www.w3.org/1999/xlink" width="375" zoomAndPan="magnify" viewBox="0 0 375 374.999991" height="374.999991" preserveAspectRatio="xMidYMid meet" version="1.0"><defs><clipPath id="clip-0"><path d="M 110.648438 110.648438 L 264.398438 110.648438 L 264.398438 264.398438 L 110.648438 264.398438 Z M 110.648438 110.648438 " clip-rule="nonzero"/></clipPath></defs><path fill="rgb(0%, 69.018555%, 45.489502%)" d="M 187.5 92.441406 C 185.945312 92.441406 184.390625 92.480469 182.835938 92.554688 C 181.28125 92.632812 179.730469 92.746094 178.183594 92.898438 C 176.632812 93.050781 175.089844 93.242188 173.550781 93.472656 C 172.011719 93.699219 170.480469 93.964844 168.957031 94.269531 C 167.429688 94.570312 165.910156 94.914062 164.402344 95.289062 C 162.894531 95.667969 161.394531 96.082031 159.90625 96.535156 C 158.417969 96.988281 156.941406 97.472656 155.476562 98 C 154.011719 98.523438 152.558594 99.082031 151.121094 99.679688 C 149.6875 100.273438 148.265625 100.902344 146.859375 101.570312 C 145.449219 102.234375 144.0625 102.933594 142.691406 103.667969 C 141.316406 104.398438 139.964844 105.167969 138.628906 105.964844 C 137.296875 106.765625 135.980469 107.597656 134.6875 108.460938 C 133.394531 109.328125 132.125 110.222656 130.875 111.148438 C 129.625 112.074219 128.398438 113.03125 127.195312 114.019531 C 125.992188 115.007812 124.816406 116.023438 123.664062 117.066406 C 122.511719 118.113281 121.382812 119.183594 120.285156 120.285156 C 119.183594 121.382812 118.113281 122.511719 117.066406 123.664062 C 116.023438 124.816406 115.007812 125.992188 114.019531 127.195312 C 113.03125 128.398438 112.074219 129.625 111.148438 130.875 C 110.222656 132.125 109.328125 133.394531 108.460938 134.6875 C 107.597656 135.980469 106.765625 137.296875 105.964844 138.628906 C 105.167969 139.964844 104.398438 141.316406 103.667969 142.691406 C 102.933594 144.0625 102.234375 145.449219 101.570312 146.859375 C 100.902344 148.265625 100.273438 149.6875 99.679688 151.121094 C 99.082031 152.558594 98.523438 154.011719 98 155.476562 C 97.472656 156.941406 96.988281 158.417969 96.535156 159.90625 C 96.082031 161.394531 95.667969 162.894531 95.289062 164.402344 C 94.914062 165.910156 94.570312 167.429688 94.269531 168.957031 C 93.964844 170.480469 93.699219 172.011719 93.472656 173.550781 C 93.242188 175.089844 93.050781 176.632812 92.898438 178.183594 C 92.746094 179.730469 92.632812 181.28125 92.554688 182.835938 C 92.480469 184.390625 92.441406 185.945312 92.441406 187.5 C 92.441406 189.054688 92.480469 190.609375 92.554688 192.164062 C 92.632812 193.71875 92.746094 195.269531 92.898438 196.816406 C 93.050781 198.367188 93.242188 199.910156 93.472656 201.449219 C 93.699219 202.988281 93.964844 204.519531 94.269531 206.042969 C 94.570312 207.570312 94.914062 209.089844 95.289062 210.597656 C 95.667969 212.105469 96.082031 213.605469 96.535156 215.09375 C 96.988281 216.582031 97.472656 218.058594 98 219.523438 C 98.523438 220.988281 99.082031 222.441406 99.679688 223.878906 C 100.273438 225.3125 100.902344 226.734375 101.570312 228.140625 C 102.234375 229.550781 102.933594 230.9375 103.667969 232.308594 C 104.398438 233.683594 105.167969 235.035156 105.964844 236.371094 C 106.765625 237.703125 107.597656 239.019531 108.460938 240.3125 C 109.328125 241.605469 110.222656 242.875 111.148438 244.125 C 112.074219 245.375 113.03125 246.601562 114.019531 247.804688 C 115.007812 249.007812 116.023438 250.183594 117.066406 251.335938 C 118.113281 252.488281 119.183594 253.617188 120.285156 254.714844 C 121.382812 255.816406 122.511719 256.886719 123.664062 257.933594 C 124.816406 258.976562 125.992188 259.992188 127.195312 260.980469 C 128.398438 261.96875 129.625 262.925781 130.875 263.851562 C 132.125 264.777344 133.394531 265.671875 134.6875 266.539062 C 135.980469 267.402344 137.296875 268.234375 138.628906 269.035156 C 139.964844 269.832031 141.316406 270.601562 142.691406 271.332031 C 144.0625 272.066406 145.449219 272.765625 146.859375 273.429688 C 148.265625 274.097656 149.6875 274.726562 151.121094 275.320312 C 152.558594 275.917969 154.011719 276.476562 155.476562 277 C 156.941406 277.523438 158.417969 278.011719 159.90625 278.464844 C 161.394531 278.917969 162.894531 279.332031 164.402344 279.710938 C 165.910156 280.085938 167.429688 280.429688 168.957031 280.730469 C 170.480469 281.035156 172.011719 281.300781 173.550781 281.527344 C 175.089844 281.757812 176.632812 281.949219 178.183594 282.101562 C 179.730469 282.253906 181.28125 282.367188 182.835938 282.445312 C 184.390625 282.519531 185.945312 282.558594 187.5 282.558594 C 189.054688 282.558594 190.609375 282.519531 192.164062 282.445312 C 193.71875 282.367188 195.269531 282.253906 196.816406 282.101562 C 198.367188 281.949219 199.910156 281.757812 201.449219 281.527344 C 202.988281 281.300781 204.519531 281.035156 206.042969 280.730469 C 207.570312 280.429688 209.089844 280.085938 210.597656 279.710938 C 212.105469 279.332031 213.605469 278.917969 215.09375 278.464844 C 216.582031 278.011719 218.058594 277.523438 219.523438 277 C 220.988281 276.476562 222.441406 275.917969 223.878906 275.320312 C 225.3125 274.726562 226.734375 274.097656 228.140625 273.429688 C 229.550781 272.765625 230.9375 272.066406 232.308594 271.332031 C 233.683594 270.601562 235.035156 269.832031 236.371094 269.035156 C 237.703125 268.234375 239.019531 267.402344 240.3125 266.539062 C 241.605469 265.671875 242.875 264.777344 244.125 263.851562 C 245.375 262.925781 246.601562 261.96875 247.804688 260.980469 C 249.007812 259.992188 250.183594 258.976562 251.335938 257.933594 C 252.488281 256.886719 253.617188 255.816406 254.714844 254.714844 C 255.816406 253.617188 256.886719 252.488281 257.933594 251.335938 C 258.976562 250.183594 259.992188 249.007812 260.980469 247.804688 C 261.96875 246.601562 262.925781 245.375 263.851562 244.125 C 264.777344 242.875 265.671875 241.605469 266.539062 240.3125 C 267.402344 239.019531 268.234375 237.703125 269.035156 236.371094 C 269.832031 235.035156 270.601562 233.683594 271.332031 232.308594 C 272.066406 230.9375 272.765625 229.550781 273.429688 228.140625 C 274.097656 226.734375 274.726562 225.3125 275.320312 223.878906 C 275.917969 222.441406 276.476562 220.988281 277 219.523438 C 277.523438 218.058594 278.011719 216.582031 278.464844 215.09375 C 278.917969 213.605469 279.332031 212.105469 279.710938 210.597656 C 280.085938 209.089844 280.429688 207.570312 280.730469 206.042969 C 281.035156 204.519531 281.300781 202.988281 281.527344 201.449219 C 281.757812 199.910156 281.949219 198.367188 282.101562 196.816406 C 282.253906 195.269531 282.367188 193.71875 282.445312 192.164062 C 282.519531 190.609375 282.558594 189.054688 282.558594 187.5 C 282.558594 185.945312 282.519531 184.390625 282.445312 182.835938 C 282.367188 181.28125 282.253906 179.730469 282.101562 178.183594 C 281.949219 176.632812 281.757812 175.089844 281.527344 173.550781 C 281.300781 172.011719 281.035156 170.480469 280.730469 168.953125 C 280.429688 167.429688 280.085938 165.910156 279.710938 164.402344 C 279.332031 162.894531 278.917969 161.394531 278.464844 159.90625 C 278.011719 158.417969 277.523438 156.941406 277 155.476562 C 276.476562 154.011719 275.917969 152.558594 275.320312 151.121094 C 274.726562 149.6875 274.097656 148.265625 273.429688 146.859375 C 272.765625 145.449219 272.066406 144.0625 271.332031 142.691406 C 270.601562 141.316406 269.832031 139.964844 269.035156 138.628906 C 268.234375 137.296875 267.402344 135.980469 266.539062 134.6875 C 265.671875 133.394531 264.777344 132.125 263.851562 130.875 C 262.925781 129.625 261.96875 128.398438 260.980469 127.195312 C 259.992188 125.992188 258.976562 124.816406 257.933594 123.664062 C 256.886719 122.511719 255.816406 121.382812 254.714844 120.285156 C 253.617188 119.183594 252.488281 118.113281 251.335938 117.066406 C 250.183594 116.023438 249.007812 115.007812 247.804688 114.019531 C 246.601562 113.03125 245.375 112.074219 244.125 111.148438 C 242.875 110.222656 241.605469 109.328125 240.3125 108.460938 C 239.019531 107.597656 237.703125 106.765625 236.371094 105.964844 C 235.035156 105.167969 233.683594 104.398438 232.308594 103.667969 C 230.9375 102.933594 229.550781 102.234375 228.140625 101.570312 C 226.734375 100.902344 225.3125 100.273438 223.878906 99.679688 C 222.441406 99.082031 220.988281 98.523438 219.523438 98 C 218.058594 97.472656 216.582031 96.988281 215.09375 96.535156 C 213.605469 96.082031 212.105469 95.667969 210.597656 95.289062 C 209.089844 94.914062 207.570312 94.570312 206.042969 94.269531 C 204.519531 93.964844 202.988281 93.699219 201.449219 93.472656 C 199.910156 93.242188 198.367188 93.050781 196.816406 92.898438 C 195.269531 92.746094 193.71875 92.632812 192.164062 92.554688 C 190.609375 92.480469 189.054688 92.441406 187.5 92.441406 Z M 187.5 92.441406 " fill-opacity="1" fill-rule="nonzero"/><g clip-path="url(#clip-0)"><path fill="rgb(100%, 100%, 100%)" d="M 187.53125 264.398438 C 145.136719 264.398438 110.648438 229.914062 110.648438 187.53125 C 110.648438 145.140625 145.136719 110.652344 187.53125 110.652344 C 229.917969 110.652344 264.398438 145.140625 264.398438 187.53125 C 264.398438 229.914062 229.917969 264.398438 187.53125 264.398438 Z M 187.53125 118.265625 C 149.335938 118.265625 118.261719 149.335938 118.261719 187.53125 C 118.261719 225.71875 149.335938 256.789062 187.53125 256.789062 C 225.71875 256.789062 256.789062 225.71875 256.789062 187.53125 C 256.789062 149.335938 225.71875 118.265625 187.53125 118.265625 Z M 187.53125 118.265625 " fill-opacity="1" fill-rule="nonzero"/></g><path fill="rgb(100%, 100%, 100%)" d="M 233.605469 218.574219 C 219.253906 196.398438 204.898438 174.21875 190.546875 152.039062 C 188.886719 149.476562 185.28125 149.4375 183.632812 152.039062 C 169.570312 174.21875 155.511719 196.398438 141.453125 218.574219 C 138.679688 222.949219 145.613281 226.964844 148.367188 222.617188 C 162.425781 200.4375 176.484375 178.261719 190.546875 156.082031 C 188.242188 156.082031 185.9375 156.082031 183.632812 156.082031 C 197.984375 178.261719 212.339844 200.4375 226.691406 222.617188 C 229.488281 226.933594 236.421875 222.921875 233.605469 218.574219 Z M 233.605469 218.574219 " fill-opacity="1" fill-rule="nonzero"/></svg>