<?xml version="1.0" encoding="UTF-8"?>
<!DOCTYPE svg  PUBLIC '-//W3C//DTD SVG 1.1//EN'  'http://www.w3.org/Graphics/SVG/1.1/DTD/svg11.dtd'>
<svg height="33px" version="1.1" viewBox="0 0 588.89 142.22" xml:space="preserve" xmlns="http://www.w3.org/2000/svg">
<g transform="translate(292.98 71.91)">
<g style="">
		<g transform="matrix(2.72 0 0 2.72 -223.45 0)">
<path transform="translate(-91.84 -177.25)" d="m91.836 153.68c-0.77344 0-1.543 0.039063-2.3125 0.11328-0.76953 0.074219-1.5312 0.1875-2.2891 0.33984-0.75781 0.14844-1.5039 0.33594-2.2422 0.5625-0.73828 0.22266-1.4648 0.48438-2.1797 0.77734-0.71094 0.29688-1.4102 0.625-2.0898 0.99219-0.68359 0.36328-1.3438 0.75781-1.9844 1.1875-0.64453 0.42969-1.2617 0.88672-1.8594 1.3789-0.59766 0.48828-1.168 1.0078-1.7148 1.5547-0.54687 0.54297-1.0625 1.1172-1.5547 1.7109-0.48828 0.59766-0.94531 1.2188-1.375 1.8594s-0.82812 1.3047-1.1914 1.9844c-0.36328 0.67969-0.69141 1.3789-0.98828 2.0938-0.29688 0.71094-0.55469 1.4375-0.78125 2.1758-0.22266 0.73828-0.41016 1.4883-0.55859 2.2461-0.15234 0.75781-0.26562 1.5195-0.33984 2.2891-0.078125 0.76562-0.11328 1.5352-0.11328 2.3086s0.035156 1.543 0.11328 2.3125c0.074219 0.76562 0.1875 1.5312 0.33984 2.2852 0.14844 0.75781 0.33594 1.5078 0.55859 2.2461 0.22656 0.73828 0.48437 1.4648 0.78125 2.1797 0.29687 0.71094 0.625 1.4102 0.98828 2.0898 0.36328 0.67969 0.76172 1.3438 1.1914 1.9844s0.88672 1.2617 1.375 1.8594c0.49219 0.59375 1.0078 1.168 1.5547 1.7148 0.54688 0.54297 1.1172 1.0625 1.7148 1.5508 0.59766 0.49219 1.2148 0.94922 1.8594 1.3789 0.64062 0.42969 1.3008 0.82422 1.9844 1.1914 0.67969 0.36328 1.3789 0.69141 2.0898 0.98828 0.71484 0.29297 1.4414 0.55469 2.1797 0.77734 0.73828 0.22656 1.4844 0.41406 2.2422 0.5625 0.75781 0.15234 1.5195 0.26562 2.2891 0.33984 0.76953 0.074218 1.5391 0.11328 2.3125 0.11328 0.76953 0 1.543-0.039063 2.3086-0.11328 0.76953-0.074219 1.5312-0.1875 2.2891-0.33984 0.75781-0.14844 1.5039-0.33594 2.2461-0.5625 0.73828-0.22266 1.4648-0.48438 2.1758-0.77734 0.71484-0.29688 1.4102-0.625 2.0938-0.98828 0.67969-0.36719 1.3398-0.76172 1.9844-1.1914 0.64062-0.42969 1.2617-0.88672 1.8555-1.3789 0.59766-0.48828 1.168-1.0078 1.7148-1.5508 0.54688-0.54688 1.0625-1.1211 1.5547-1.7148 0.48828-0.59766 0.94922-1.2188 1.3789-1.8594s0.82422-1.3047 1.1875-1.9844c0.36328-0.67969 0.69531-1.3789 0.98828-2.0898 0.29688-0.71484 0.55859-1.4414 0.78125-2.1797 0.22266-0.73828 0.41016-1.4883 0.5625-2.2461 0.14844-0.75391 0.26172-1.5195 0.33984-2.2852 0.074219-0.76953 0.11328-1.5391 0.11328-2.3125s-0.039062-1.543-0.11328-2.3086c-0.078125-0.76953-0.19141-1.5312-0.33984-2.2891-0.15234-0.75781-0.33984-1.5078-0.5625-2.2461-0.22266-0.73828-0.48438-1.4648-0.78125-2.1758-0.29297-0.71484-0.625-1.4141-0.98828-2.0938-0.36328-0.67969-0.75781-1.3438-1.1875-1.9844s-0.89062-1.2617-1.3789-1.8594c-0.49219-0.59375-1.0078-1.168-1.5547-1.7109-0.54688-0.54688-1.1172-1.0664-1.7148-1.5547-0.59375-0.49219-1.2148-0.94922-1.8555-1.3789-0.64453-0.42969-1.3047-0.82422-1.9844-1.1875-0.68359-0.36719-1.3789-0.69531-2.0938-0.99219-0.71094-0.29297-1.4375-0.55469-2.1758-0.77734-0.74219-0.22656-1.4883-0.41406-2.2461-0.5625-0.75781-0.15234-1.5195-0.26562-2.2891-0.33984-0.76562-0.074218-1.5391-0.11328-2.3086-0.11328zm0 0" fill="#00af72" stroke-linecap="round"/>
</g>
		<g transform="matrix(2.72 0 0 2.72 -223.82 -.39)" clip-path="url(#a)">
<clipPath id="a">
	<path transform="matrix(1 0 0 1 0 0) translate(-91.7 -177.12)" d="m72.777 158.19h37.844v37.848h-37.844zm0 0" stroke-linecap="round"/>
</clipPath>
<path transform="translate(-91.7 -177.12)" d="m91.699 196.04c-10.434 0-18.922-8.4883-18.922-18.922 0-10.438 8.4883-18.926 18.922-18.926 10.434 0 18.922 8.4883 18.922 18.926 0 10.434-8.4883 18.922-18.922 18.922zm0-35.973c-9.4023 0-17.051 7.6484-17.051 17.051 0 9.3984 7.6484 17.047 17.051 17.047 9.4023 0 17.051-7.6484 17.051-17.047 0-9.4023-7.6484-17.051-17.051-17.051zm0 0" fill="#fff" stroke-linecap="round"/>
</g>
		<g transform="matrix(2.72 0 0 2.72 -223.81 -3.83)">
<path transform="translate(-91.7 -177.06)" d="m103.04 184.76c-3.5352-5.4609-7.0664-10.918-10.602-16.379-0.40625-0.62891-1.293-0.64062-1.6992 0-3.4609 5.4609-6.9219 10.918-10.383 16.379-0.68359 1.0781 1.0234 2.0664 1.6992 0.99609 3.4609-5.4609 6.9219-10.922 10.383-16.379h-1.6992c3.5312 5.457 7.0664 10.918 10.598 16.379 0.6875 1.0625 2.3945 0.074219 1.7031-0.99609zm0 0" fill="#fff" stroke-linecap="round"/>
</g>
		<g transform="matrix(2.72 0 0 2.72 -114.25 .28)">
<path transform="translate(-9.79 10.64)" d="m2.5781 0v-21.281h7.1875c1.6758 0 3.0469 0.30469 4.1094 0.90625 1.0625 0.59375 1.8477 1.4023 2.3594 2.4219 0.50781 1.0117 0.76562 2.1484 0.76562 3.4062 0 1.25-0.25781 2.3906-0.76562 3.4219-0.51172 1.0234-1.2969 1.8359-2.3594 2.4375-1.0547 0.60547-2.4062 0.90625-4.0625 0.90625h-4.6562v7.7812zm2.5781-10.062h4.5781c1.707 0 2.9219-0.42578 3.6406-1.2812 0.72656-0.86328 1.0938-1.9297 1.0938-3.2031 0-1.2812-0.36719-2.3438-1.0938-3.1875-0.73047-0.84375-1.9609-1.2656-3.6875-1.2656h-4.5312zm0 0" fill="#00af72" stroke-linecap="round"/>
</g>
		<g transform="matrix(2.72 0 0 2.72 -62.3 .28)">
<path transform="translate(-10.2 10.64)" d="m2.5781 0v-21.281h7.1875c1.6641 0 3.0312 0.28125 4.0938 0.84375 1.0703 0.5625 1.8633 1.3398 2.375 2.3281 0.50781 0.98047 0.76562 2.1016 0.76562 3.3594 0 1.4062-0.32422 2.6367-0.96875 3.6875-0.64844 1.0547-1.6523 1.8086-3.0156 2.2656l4.8125 8.7969h-2.9844l-4.5-8.3281c-0.16797 0.011719-0.34375 0.015625-0.53125 0.015625h-4.6562v8.3125zm2.5781-10.641h4.5781c1.6953 0 2.9102-0.36328 3.6406-1.0938 0.72656-0.73828 1.0938-1.7422 1.0938-3.0156 0-1.2891-0.36719-2.3203-1.0938-3.0938-0.73047-0.76953-1.9609-1.1562-3.6875-1.1562h-4.5312zm0 0" fill="#00af72" stroke-linecap="round"/>
</g>
		<g transform="matrix(2.72 0 0 2.72 -9.45 .28)">
<path transform="translate(-10.83 10.64)" d="m2.5781 0v-21.281h2.5781v9.4688h11.344v-9.4688h2.5781v21.281h-2.5781v-9.5156h-11.344v9.5156zm0 0" fill="#28383f" stroke-linecap="round"/>
</g>
		<g transform="matrix(2.72 0 0 2.72 49.83 .79)">
<path transform="translate(-10.85 10.45)" d="m16.547-21.281h2.5781v14.094c0 1.5938-0.38281 2.9609-1.1406 4.0938-0.75 1.125-1.7578 1.9844-3.0156 2.5781-1.25 0.59375-2.625 0.89062-4.125 0.89062-1.4922 0-2.8672-0.29688-4.125-0.89062-1.25-0.59375-2.2578-1.4531-3.0156-2.5781-0.75-1.1328-1.125-2.5-1.125-4.0938v-14.094h2.5781v14.094c0 1.1055 0.25781 2.043 0.78125 2.8125 0.53125 0.76172 1.2266 1.3438 2.0938 1.75 0.86328 0.39844 1.8008 0.59375 2.8125 0.59375 1.0195 0 1.9609-0.19531 2.8281-0.59375 0.86328-0.40625 1.5547-0.98828 2.0781-1.75 0.53125-0.76953 0.79688-1.707 0.79688-2.8125zm0 0" fill="#28383f" stroke-linecap="round"/>
</g>
		<g transform="matrix(2.72 0 0 2.72 109.59 .28)">
<path transform="translate(-11.02 10.64)" d="m19.453-21.281v21.281h-2.5l-11.594-16.719h-0.20312v16.719h-2.5781v-21.281h2.5l11.641 16.75h0.20312v-16.75zm0 0" fill="#28383f" stroke-linecap="round"/>
</g>
		<g transform="matrix(2.72 0 0 2.72 165.41 .28)">
<path transform="translate(-9.39 10.64)" d="m1.4062-19v-2.2812h15.969v2.2812h-6.6875v19h-2.5781v-19zm0 0" fill="#28383f" stroke-linecap="round"/>
</g>
		<g transform="matrix(2.72 0 0 2.72 215.98 .28)">
<path transform="translate(-9.09 10.64)" d="m2.5781 0v-21.281h12.844v2.2812h-10.266v7.1875h9.5938v2.2969h-9.5938v7.2344h10.438v2.2812zm0 0" fill="#28383f" stroke-linecap="round"/>
</g>
		<g transform="matrix(2.72 0 0 2.72 266.88 .28)">
<path transform="translate(-10.2 10.64)" d="m2.5781 0v-21.281h7.1875c1.6641 0 3.0312 0.28125 4.0938 0.84375 1.0703 0.5625 1.8633 1.3398 2.375 2.3281 0.50781 0.98047 0.76562 2.1016 0.76562 3.3594 0 1.4062-0.32422 2.6367-0.96875 3.6875-0.64844 1.0547-1.6523 1.8086-3.0156 2.2656l4.8125 8.7969h-2.9844l-4.5-8.3281c-0.16797 0.011719-0.34375 0.015625-0.53125 0.015625h-4.6562v8.3125zm2.5781-10.641h4.5781c1.6953 0 2.9102-0.36328 3.6406-1.0938 0.72656-0.73828 1.0938-1.7422 1.0938-3.0156 0-1.2891-0.36719-2.3203-1.0938-3.0938-0.73047-0.76953-1.9609-1.1562-3.6875-1.1562h-4.5312zm0 0" fill="#28383f" stroke-linecap="round"/>
</g>
</g>
</g>
</svg>
